Disc Title:     Wonder Park
Disc Label:     Wonder.Park.2019.MULTI.COMPLETE.BLURAY-BD4U
Disc Size:      37,080,002,088 bytes
Protection:     AACS
Extras:         BD-Java
BDInfo:         0.7.5.5

Notes:          

BDINFO HOME:
  Cinema Squid (old)
    http://www.cinemasquid.com/blu-ray/tools/bdinfo
  UniqProject GitHub (new)
   https://github.com/UniqProject/BDInfo

INCLUDES FORUMS REPORT FOR:
  AVS Forum Blu-ray Audio and Video Specifications Thread
    http://www.avsforum.com/avs-vb/showthread.php?t=1155731


********************
PLAYLIST: 00800.MPLS
********************

<--- BEGIN FORUMS PASTE --->
[code]
                                                                                                                Total   Video                                             
Title                                                           Codec   Length  Movie Size      Disc Size       Bitrate Bitrate Main Audio Track                          Secondary Audio Track
-----                                                           ------  ------- --------------  --------------  ------- ------- ------------------                        ---------------------
00800.MPLS                                                      AVC     1:25:16 27,195,414,528  37,080,002,088  42.52   27.22   Dolby TrueHD 7.1 4967Kbps (48kHz/24-bit)  DD AC3 5.1 640Kbps
[/code]

[code]

DISC INFO:

Disc Title:     Wonder Park
Disc Label:     Wonder.Park.2019.MULTI.COMPLETE.BLURAY-BD4U
Disc Size:      37,080,002,088 bytes
Protection:     AACS
Extras:         BD-Java
BDInfo:         0.7.5.5

PLAYLIST REPORT:

Name:                   00800.MPLS
Length:                 1:25:16.986 (h:m:s.ms)
Size:                   27,195,414,528 bytes
Total Bitrate:          42.52 Mbps

VIDEO:

Codec                   Bitrate             Description     
-----                   -------             -----------     
MPEG-4 AVC Video        27215 kbps          1080p / 23.976 fps / 16:9 / High Profile 4.1

AUDIO:

Codec                           Language        Bitrate         Description     
-----                           --------        -------         -----------     
Dolby TrueHD Audio              English         4967 kbps       7.1 / 48 kHz /  4327 kbps / 24-bit (AC3 Embedded: 5.1-EX / 48 kHz /   640 kbps / DN -27dB)
Dolby Digital Audio             English         640 kbps        5.1 / 48 kHz /   640 kbps / DN -27dB
Dolby Digital Audio             English         640 kbps        5.1 / 48 kHz /   640 kbps / DN -27dB
Dolby Digital Audio             Catalan         640 kbps        5.1 / 48 kHz /   640 kbps / DN -27dB
Dolby Digital Audio             Danish          640 kbps        5.1 / 48 kHz /   640 kbps / DN -27dB
Dolby Digital Audio             German          640 kbps        5.1 / 48 kHz /   640 kbps / DN -27dB
Dolby Digital Audio             Spanish         640 kbps        5.1 / 48 kHz /   640 kbps / DN -27dB
Dolby Digital Audio             Italian         640 kbps        5.1 / 48 kHz /   640 kbps / DN -27dB
Dolby Digital Audio             Norwegian       640 kbps        5.1 / 48 kHz /   640 kbps / DN -27dB
Dolby Digital Audio             Finnish         640 kbps        5.1 / 48 kHz /   640 kbps / DN -27dB
Dolby Digital Audio             Swedish         640 kbps        5.1 / 48 kHz /   640 kbps / DN -27dB

SUBTITLES:

Codec                           Language        Bitrate         Description     
-----                           --------        -------         -----------     
Presentation Graphics           English         37.228 kbps                     
Presentation Graphics           English         48.063 kbps                     
Presentation Graphics           Catalan         33.281 kbps                     
Presentation Graphics           Danish          34.948 kbps                     
Presentation Graphics           German          41.329 kbps                     
Presentation Graphics           Spanish         37.707 kbps                     
Presentation Graphics           Italian         36.355 kbps                     
Presentation Graphics           Korean          24.435 kbps                     
Presentation Graphics           Norwegian       35.110 kbps                     
Presentation Graphics           Finnish         32.729 kbps                     
Presentation Graphics           Swedish         32.962 kbps                     

FILES:

Name            Time In         Length          Size            Total Bitrate   
----            -------         ------          ----            -------------   
00800.M2TS      0:00:00.000     1:17:39.279     24,801,226,752  42,584          
01090.M2TS      1:17:39.279     0:01:51.903     588,816,384     42,095          
01092.M2TS      1:19:31.183     0:05:45.803     1,805,371,392   41,766          

CHAPTERS:

Number          Time In         Length          Avg Video Rate  Max 1-Sec Rate  Max 1-Sec Time  Max 5-Sec Rate  Max 5-Sec Time  Max 10Sec Rate  Max 10Sec Time  Avg Frame Size  Max Frame Size  Max Frame Time  
------          -------         ------          --------------  --------------  --------------  --------------  --------------  --------------  --------------  --------------  --------------  --------------  
1               0:00:00.000     0:06:34.811     26,796 kbps     35,693 kbps     00:00:35.076    29,424 kbps     00:00:49.632    29,147 kbps     00:01:19.871    139,690 bytes   615,212 bytes   00:00:32.490    
2               0:06:34.811     0:05:30.663     27,889 kbps     32,577 kbps     00:07:03.714    29,495 kbps     00:09:56.971    29,141 kbps     00:09:55.970    145,401 bytes   587,353 bytes   00:10:02.935    
3               0:12:05.474     0:08:17.371     27,224 kbps     31,329 kbps     00:12:05.891    29,324 kbps     00:15:29.261    29,015 kbps     00:17:20.956    141,935 bytes   460,880 bytes   00:15:32.598    
4               0:20:22.846     0:05:26.743     26,304 kbps     32,086 kbps     00:25:47.921    29,531 kbps     00:25:43.917    29,009 kbps     00:25:22.604    137,135 bytes   629,749 bytes   00:25:07.797    
5               0:25:49.589     0:07:14.058     28,073 kbps     33,050 kbps     00:29:23.011    29,581 kbps     00:29:02.031    29,149 kbps     00:27:35.278    146,360 bytes   537,823 bytes   00:27:47.290    
6               0:33:03.648     0:06:10.536     27,092 kbps     33,902 kbps     00:33:14.575    29,595 kbps     00:36:37.653    29,174 kbps     00:33:05.566    141,244 bytes   501,003 bytes   00:37:33.292    
7               0:39:14.185     0:08:25.463     27,191 kbps     32,402 kbps     00:42:58.158    29,656 kbps     00:42:57.199    29,206 kbps     00:46:56.480    141,760 bytes   636,875 bytes   00:43:03.122    
8               0:47:39.648     0:06:59.794     26,875 kbps     31,608 kbps     00:51:46.436    29,292 kbps     00:48:48.383    28,943 kbps     00:53:09.060    140,112 bytes   466,096 bytes   00:48:35.245    
9               0:54:39.442     0:05:53.019     27,612 kbps     32,442 kbps     00:59:55.466    29,369 kbps     00:59:42.245    29,055 kbps     00:59:39.450    143,956 bytes   615,550 bytes   00:59:53.548    
10              1:00:32.462     0:05:45.344     27,112 kbps     36,080 kbps     01:02:14.981    30,183 kbps     01:02:10.977    29,331 kbps     01:02:05.972    141,347 bytes   635,974 bytes   01:02:31.289    
11              1:06:17.807     0:06:54.247     27,764 kbps     33,836 kbps     01:07:13.404    29,475 kbps     01:11:18.983    29,118 kbps     01:11:13.978    144,748 bytes   560,790 bytes   01:13:08.634    
12              1:13:12.054     0:04:37.694     26,463 kbps     32,014 kbps     01:17:34.149    29,324 kbps     01:17:36.276    29,004 kbps     01:16:31.295    137,966 bytes   502,544 bytes   01:16:13.068    
13              1:17:49.748     0:07:27.238     27,088 kbps     40,978 kbps     01:25:14.400    31,384 kbps     01:25:10.396    29,099 kbps     01:19:21.423    141,235 bytes   640,921 bytes   01:23:30.422    

STREAM DIAGNOSTICS:

File            PID             Type            Codec           Language                Seconds                 Bitrate                 Bytes           Packets         
----            ---             ----            -----           --------                --------------          --------------          -------------   -----           
00800.M2TS      4113 (0x1011)   0x1B            AVC                                     4659.196                27,224                  15,855,373,954  86,236,579      
00800.M2TS      4352 (0x1100)   0x83            TrueHD          eng (English)           4659.196                4,970                   2,894,740,328   19,435,889      
00800.M2TS      4353 (0x1101)   0x81            AC3             eng (English)           4659.196                640                     372,743,680     2,184,045       
00800.M2TS      4354 (0x1102)   0x81            AC3             eng (English)           4659.196                640                     372,743,680     2,184,045       
00800.M2TS      4355 (0x1103)   0x81            AC3             cat (Catalan)           4659.196                640                     372,743,680     2,184,045       
00800.M2TS      4356 (0x1104)   0x81            AC3             dan (Danish)            4659.196                640                     372,743,680     2,184,045       
00800.M2TS      4357 (0x1105)   0x81            AC3             deu (German)            4659.196                640                     372,743,680     2,184,045       
00800.M2TS      4358 (0x1106)   0x81            AC3             spa (Spanish)           4659.196                640                     372,743,680     2,184,045       
00800.M2TS      4359 (0x1107)   0x81            AC3             ita (Italian)           4659.196                640                     372,743,680     2,184,045       
00800.M2TS      4360 (0x1108)   0x81            AC3             nor (Norwegian)         4659.196                640                     372,743,680     2,184,045       
00800.M2TS      4361 (0x1109)   0x81            AC3             fin (Finnish)           4659.196                640                     372,743,680     2,184,045       
00800.M2TS      4362 (0x110A)   0x81            AC3             swe (Swedish)           4659.196                640                     372,743,680     2,184,045       
00800.M2TS      4608 (0x1200)   0x90            PGS             eng (English)           4659.196                41                      23,777,241      136,919         
00800.M2TS      4609 (0x1201)   0x90            PGS             eng (English)           4659.196                53                      30,673,257      177,140         
00800.M2TS      4610 (0x1202)   0x90            PGS             cat (Catalan)           4659.196                36                      21,244,801      123,179         
00800.M2TS      4611 (0x1203)   0x90            PGS             dan (Danish)            4659.196                38                      22,302,799      129,083         
00800.M2TS      4612 (0x1204)   0x90            PGS             deu (German)            4659.196                45                      26,363,353      151,017         
00800.M2TS      4613 (0x1205)   0x90            PGS             spa (Spanish)           4659.196                41                      24,055,860      138,599         
00800.M2TS      4614 (0x1206)   0x90            PGS             ita (Italian)           4659.196                40                      23,218,549      133,928         
00800.M2TS      4615 (0x1207)   0x90            PGS             kor (Korean)            4659.196                27                      15,599,004      92,474          
00800.M2TS      4616 (0x1208)   0x90            PGS             nor (Norwegian)         4659.196                38                      22,410,608      129,589         
00800.M2TS      4617 (0x1209)   0x90            PGS             fin (Finnish)           4659.196                36                      20,887,718      121,297         
00800.M2TS      4618 (0x120A)   0x90            PGS             swe (Swedish)           4659.196                36                      21,040,111      121,221         
01090.M2TS      4113 (0x1011)   0x1B            AVC                                     111.820                 27,164                  379,689,559     2,065,086       
01090.M2TS      4352 (0x1100)   0x83            TrueHD          eng (English)           111.820                 5,378                   75,171,578      469,418         
01090.M2TS      4353 (0x1101)   0x81            AC3             eng (English)           111.820                 640                     8,952,320       52,455          
01090.M2TS      4354 (0x1102)   0x81            AC3             eng (English)           111.820                 640                     8,952,320       52,455          
01090.M2TS      4355 (0x1103)   0x81            AC3             cat (Catalan)           111.820                 640                     8,952,320       52,455          
01090.M2TS      4356 (0x1104)   0x81            AC3             dan (Danish)            111.820                 640                     8,952,320       52,455          
01090.M2TS      4357 (0x1105)   0x81            AC3             deu (German)            111.820                 640                     8,952,320       52,455          
01090.M2TS      4358 (0x1106)   0x81            AC3             spa (Spanish)           111.820                 640                     8,952,320       52,455          
01090.M2TS      4359 (0x1107)   0x81            AC3             ita (Italian)           111.820                 640                     8,952,320       52,455          
01090.M2TS      4360 (0x1108)   0x81            AC3             nor (Norwegian)         111.820                 640                     8,952,320       52,455          
01090.M2TS      4361 (0x1109)   0x81            AC3             fin (Finnish)           111.820                 640                     8,952,320       52,455          
01090.M2TS      4362 (0x110A)   0x81            AC3             swe (Swedish)           111.820                 640                     8,952,320       52,455          
01090.M2TS      4608 (0x1200)   0x90            PGS             eng (English)           111.820                 2                       34,574          202             
01090.M2TS      4609 (0x1201)   0x90            PGS             eng (English)           111.820                 4                       54,120          315             
01090.M2TS      4610 (0x1202)   0x90            PGS             cat (Catalan)           111.820                 3                       36,724          220             
01090.M2TS      4611 (0x1203)   0x90            PGS             dan (Danish)            111.820                 3                       45,363          269             
01090.M2TS      4612 (0x1204)   0x90            PGS             deu (German)            111.820                 5                       65,503          377             
01090.M2TS      4613 (0x1205)   0x90            PGS             spa (Spanish)           111.820                 4                       55,511          323             
01090.M2TS      4614 (0x1206)   0x90            PGS             ita (Italian)           111.820                 2                       30,009          177             
01090.M2TS      4615 (0x1207)   0x90            PGS             kor (Korean)            111.820                 2                       25,031          157             
01090.M2TS      4616 (0x1208)   0x90            PGS             nor (Norwegian)         111.820                 3                       38,353          230             
01090.M2TS      4617 (0x1209)   0x90            PGS             fin (Finnish)           111.820                 3                       41,397          246             
01090.M2TS      4618 (0x120A)   0x90            PGS             swe (Swedish)           111.820                 3                       36,106          217             
01092.M2TS      4113 (0x1011)   0x1B            AVC                                     345.720                 27,133                  1,172,542,156   6,377,474       
01092.M2TS      4352 (0x1100)   0x83            TrueHD          eng (English)           345.720                 4,785                   206,792,644     1,388,699       
01092.M2TS      4353 (0x1101)   0x81            AC3             eng (English)           345.720                 640                     27,665,920      162,105         
01092.M2TS      4354 (0x1102)   0x81            AC3             eng (English)           345.720                 640                     27,665,920      162,105         
01092.M2TS      4355 (0x1103)   0x81            AC3             cat (Catalan)           345.720                 640                     27,665,920      162,105         
01092.M2TS      4356 (0x1104)   0x81            AC3             dan (Danish)            345.720                 640                     27,665,920      162,105         
01092.M2TS      4357 (0x1105)   0x81            AC3             deu (German)            345.720                 640                     27,665,920      162,105         
01092.M2TS      4358 (0x1106)   0x81            AC3             spa (Spanish)           345.720                 640                     27,665,920      162,105         
01092.M2TS      4359 (0x1107)   0x81            AC3             ita (Italian)           345.720                 640                     27,665,920      162,105         
01092.M2TS      4360 (0x1108)   0x81            AC3             nor (Norwegian)         345.720                 640                     27,665,920      162,105         
01092.M2TS      4361 (0x1109)   0x81            AC3             fin (Finnish)           345.720                 640                     27,665,920      162,105         
01092.M2TS      4362 (0x110A)   0x81            AC3             swe (Swedish)           345.720                 640                     27,665,920      162,105         
01092.M2TS      4608 (0x1200)   0x90            PGS             eng (English)           345.720                 0                       70              7               
01092.M2TS      4609 (0x1201)   0x90            PGS             eng (English)           345.720                 0                       15,146          89              
01092.M2TS      4610 (0x1202)   0x90            PGS             cat (Catalan)           345.720                 0                       6,068           40              
01092.M2TS      4611 (0x1203)   0x90            PGS             dan (Danish)            345.720                 0                       5,452           37              
01092.M2TS      4612 (0x1204)   0x90            PGS             deu (German)            345.720                 0                       5,931           39              
01092.M2TS      4613 (0x1205)   0x90            PGS             spa (Spanish)           345.720                 0                       6,992           45              
01092.M2TS      4614 (0x1206)   0x90            PGS             ita (Italian)           345.720                 0                       5,022           34              
01092.M2TS      4615 (0x1207)   0x90            PGS             kor (Korean)            345.720                 0                       5,108           34              
01092.M2TS      4616 (0x1208)   0x90            PGS             nor (Norwegian)         345.720                 0                       8,243           52              
01092.M2TS      4617 (0x1209)   0x90            PGS             fin (Finnish)           345.720                 0                       5,413           36              
01092.M2TS      4618 (0x120A)   0x90            PGS             swe (Swedish)           345.720                 0                       6,807           44              

[/code]
<---- END FORUMS PASTE ---->

QUICK SUMMARY:

Disc Title: Wonder Park
Disc Label: Wonder.Park.2019.MULTI.COMPLETE.BLURAY-BD4U
Disc Size: 37,080,002,088 bytes
Protection: AACS
Playlist: 00800.MPLS
Size: 27,195,414,528 bytes
Length: 1:25:16.986
Total Bitrate: 42.52 Mbps
Video: MPEG-4 AVC Video / 27215 kbps / 1080p / 23.976 fps / 16:9 / High Profile 4.1
Audio: English / Dolby TrueHD Audio / 7.1 / 48 kHz /  4327 kbps / 24-bit (AC3 Embedded: 5.1-EX / 48 kHz /   640 kbps / DN -27dB)
Audio: English / Dolby Digital Audio / 5.1 / 48 kHz /   640 kbps / DN -27dB
Audio: English / Dolby Digital Audio / 5.1 / 48 kHz /   640 kbps / DN -27dB
Audio: Catalan / Dolby Digital Audio / 5.1 / 48 kHz /   640 kbps / DN -27dB
Audio: Danish / Dolby Digital Audio / 5.1 / 48 kHz /   640 kbps / DN -27dB
Audio: German / Dolby Digital Audio / 5.1 / 48 kHz /   640 kbps / DN -27dB
Audio: Spanish / Dolby Digital Audio / 5.1 / 48 kHz /   640 kbps / DN -27dB
Audio: Italian / Dolby Digital Audio / 5.1 / 48 kHz /   640 kbps / DN -27dB
Audio: Norwegian / Dolby Digital Audio / 5.1 / 48 kHz /   640 kbps / DN -27dB
Audio: Finnish / Dolby Digital Audio / 5.1 / 48 kHz /   640 kbps / DN -27dB
Audio: Swedish / Dolby Digital Audio / 5.1 / 48 kHz /   640 kbps / DN -27dB
Subtitle: English / 37.228 kbps
Subtitle: English / 48.063 kbps
Subtitle: Catalan / 33.281 kbps
Subtitle: Danish / 34.948 kbps
Subtitle: German / 41.329 kbps
Subtitle: Spanish / 37.707 kbps
Subtitle: Italian / 36.355 kbps
Subtitle: Korean / 24.435 kbps
Subtitle: Norwegian / 35.110 kbps
Subtitle: Finnish / 32.729 kbps
Subtitle: Swedish / 32.962 kbps


********************
PLAYLIST: 00801.MPLS
********************

<--- BEGIN FORUMS PASTE --->
[code]
                                                                                                                Total   Video                                             
Title                                                           Codec   Length  Movie Size      Disc Size       Bitrate Bitrate Main Audio Track                          Secondary Audio Track
-----                                                           ------  ------- --------------  --------------  ------- ------- ------------------                        ---------------------
00801.MPLS                                                      AVC     1:25:16 27,196,096,512  37,080,002,088  42.52   27.22   Dolby TrueHD 7.1 4967Kbps (48kHz/24-bit)  DD AC3 5.1 640Kbps
[/code]

[code]

DISC INFO:

Disc Title:     Wonder Park
Disc Label:     Wonder.Park.2019.MULTI.COMPLETE.BLURAY-BD4U
Disc Size:      37,080,002,088 bytes
Protection:     AACS
Extras:         BD-Java
BDInfo:         0.7.5.5

PLAYLIST REPORT:

Name:                   00801.MPLS
Length:                 1:25:16.986 (h:m:s.ms)
Size:                   27,196,096,512 bytes
Total Bitrate:          42.52 Mbps

VIDEO:

Codec                   Bitrate             Description     
-----                   -------             -----------     
MPEG-4 AVC Video        27216 kbps          1080p / 23.976 fps / 16:9 / High Profile 4.1

AUDIO:

Codec                           Language        Bitrate         Description     
-----                           --------        -------         -----------     
Dolby TrueHD Audio              English         4967 kbps       7.1 / 48 kHz /  4327 kbps / 24-bit (AC3 Embedded: 5.1-EX / 48 kHz /   640 kbps / DN -27dB)
Dolby Digital Audio             English         640 kbps        5.1 / 48 kHz /   640 kbps / DN -27dB
Dolby Digital Audio             English         640 kbps        5.1 / 48 kHz /   640 kbps / DN -27dB
Dolby Digital Audio             Catalan         640 kbps        5.1 / 48 kHz /   640 kbps / DN -27dB
Dolby Digital Audio             Danish          640 kbps        5.1 / 48 kHz /   640 kbps / DN -27dB
Dolby Digital Audio             German          640 kbps        5.1 / 48 kHz /   640 kbps / DN -27dB
Dolby Digital Audio             Spanish         640 kbps        5.1 / 48 kHz /   640 kbps / DN -27dB
Dolby Digital Audio             Italian         640 kbps        5.1 / 48 kHz /   640 kbps / DN -27dB
Dolby Digital Audio             Norwegian       640 kbps        5.1 / 48 kHz /   640 kbps / DN -27dB
Dolby Digital Audio             Finnish         640 kbps        5.1 / 48 kHz /   640 kbps / DN -27dB
Dolby Digital Audio             Swedish         640 kbps        5.1 / 48 kHz /   640 kbps / DN -27dB

SUBTITLES:

Codec                           Language        Bitrate         Description     
-----                           --------        -------         -----------     
Presentation Graphics           English         37.228 kbps                     
Presentation Graphics           English         48.063 kbps                     
Presentation Graphics           Catalan         33.281 kbps                     
Presentation Graphics           Danish          34.948 kbps                     
Presentation Graphics           German          41.329 kbps                     
Presentation Graphics           Spanish         37.707 kbps                     
Presentation Graphics           Italian         36.355 kbps                     
Presentation Graphics           Korean          24.435 kbps                     
Presentation Graphics           Norwegian       35.110 kbps                     
Presentation Graphics           Finnish         32.729 kbps                     
Presentation Graphics           Swedish         32.962 kbps                     

FILES:

Name            Time In         Length          Size            Total Bitrate   
----            -------         ------          ----            -------------   
00800.M2TS      0:00:00.000     1:17:39.279     24,801,226,752  42,584          
01091.M2TS      1:17:39.279     0:01:51.903     589,498,368     42,143          
01092.M2TS      1:19:31.183     0:05:45.803     1,805,371,392   41,766          

CHAPTERS:

Number          Time In         Length          Avg Video Rate  Max 1-Sec Rate  Max 1-Sec Time  Max 5-Sec Rate  Max 5-Sec Time  Max 10Sec Rate  Max 10Sec Time  Avg Frame Size  Max Frame Size  Max Frame Time  
------          -------         ------          --------------  --------------  --------------  --------------  --------------  --------------  --------------  --------------  --------------  --------------  
1               0:00:00.000     0:06:34.811     26,796 kbps     35,693 kbps     00:00:35.076    29,424 kbps     00:00:49.632    29,147 kbps     00:01:19.871    139,690 bytes   615,212 bytes   00:00:32.490    
2               0:06:34.811     0:05:30.663     27,889 kbps     32,577 kbps     00:07:03.714    29,495 kbps     00:09:56.971    29,141 kbps     00:09:55.970    145,401 bytes   587,353 bytes   00:10:02.935    
3               0:12:05.474     0:08:17.371     27,224 kbps     31,329 kbps     00:12:05.891    29,324 kbps     00:15:29.261    29,015 kbps     00:17:20.956    141,935 bytes   460,880 bytes   00:15:32.598    
4               0:20:22.846     0:05:26.743     26,304 kbps     32,086 kbps     00:25:47.921    29,531 kbps     00:25:43.917    29,009 kbps     00:25:22.604    137,135 bytes   629,749 bytes   00:25:07.797    
5               0:25:49.589     0:07:14.058     28,073 kbps     33,050 kbps     00:29:23.011    29,581 kbps     00:29:02.031    29,149 kbps     00:27:35.278    146,360 bytes   537,823 bytes   00:27:47.290    
6               0:33:03.648     0:06:10.536     27,092 kbps     33,902 kbps     00:33:14.575    29,595 kbps     00:36:37.653    29,174 kbps     00:33:05.566    141,244 bytes   501,003 bytes   00:37:33.292    
7               0:39:14.185     0:08:25.463     27,191 kbps     32,402 kbps     00:42:58.158    29,656 kbps     00:42:57.199    29,206 kbps     00:46:56.480    141,760 bytes   636,875 bytes   00:43:03.122    
8               0:47:39.648     0:06:59.794     26,875 kbps     31,608 kbps     00:51:46.436    29,292 kbps     00:48:48.383    28,943 kbps     00:53:09.060    140,112 bytes   466,096 bytes   00:48:35.245    
9               0:54:39.442     0:05:53.019     27,612 kbps     32,442 kbps     00:59:55.466    29,369 kbps     00:59:42.245    29,055 kbps     00:59:39.450    143,956 bytes   615,550 bytes   00:59:53.548    
10              1:00:32.462     0:05:45.344     27,112 kbps     36,080 kbps     01:02:14.981    30,183 kbps     01:02:10.977    29,331 kbps     01:02:05.972    141,347 bytes   635,974 bytes   01:02:31.289    
11              1:06:17.807     0:06:54.247     27,764 kbps     33,836 kbps     01:07:13.404    29,475 kbps     01:11:18.983    29,118 kbps     01:11:13.978    144,748 bytes   560,790 bytes   01:13:08.634    
12              1:13:12.054     0:04:37.694     26,470 kbps     32,014 kbps     01:17:34.149    29,312 kbps     01:16:12.442    29,004 kbps     01:16:31.295    138,002 bytes   502,544 bytes   01:16:13.068    
13              1:17:49.748     0:07:27.238     27,095 kbps     40,978 kbps     01:25:14.400    31,384 kbps     01:25:10.396    28,889 kbps     01:23:05.438    141,274 bytes   640,921 bytes   01:23:30.422    

STREAM DIAGNOSTICS:

File            PID             Type            Codec           Language                Seconds                 Bitrate                 Bytes           Packets         
----            ---             ----            -----           --------                --------------          --------------          -------------   -----           
00800.M2TS      4113 (0x1011)   0x1B            AVC                                     4659.196                27,224                  15,855,373,954  86,236,579      
00800.M2TS      4352 (0x1100)   0x83            TrueHD          eng (English)           4659.196                4,970                   2,894,740,328   19,435,889      
00800.M2TS      4353 (0x1101)   0x81            AC3             eng (English)           4659.196                640                     372,743,680     2,184,045       
00800.M2TS      4354 (0x1102)   0x81            AC3             eng (English)           4659.196                640                     372,743,680     2,184,045       
00800.M2TS      4355 (0x1103)   0x81            AC3             cat (Catalan)           4659.196                640                     372,743,680     2,184,045       
00800.M2TS      4356 (0x1104)   0x81            AC3             dan (Danish)            4659.196                640                     372,743,680     2,184,045       
00800.M2TS      4357 (0x1105)   0x81            AC3             deu (German)            4659.196                640                     372,743,680     2,184,045       
00800.M2TS      4358 (0x1106)   0x81            AC3             spa (Spanish)           4659.196                640                     372,743,680     2,184,045       
00800.M2TS      4359 (0x1107)   0x81            AC3             ita (Italian)           4659.196                640                     372,743,680     2,184,045       
00800.M2TS      4360 (0x1108)   0x81            AC3             nor (Norwegian)         4659.196                640                     372,743,680     2,184,045       
00800.M2TS      4361 (0x1109)   0x81            AC3             fin (Finnish)           4659.196                640                     372,743,680     2,184,045       
00800.M2TS      4362 (0x110A)   0x81            AC3             swe (Swedish)           4659.196                640                     372,743,680     2,184,045       
00800.M2TS      4608 (0x1200)   0x90            PGS             eng (English)           4659.196                41                      23,777,241      136,919         
00800.M2TS      4609 (0x1201)   0x90            PGS             eng (English)           4659.196                53                      30,673,257      177,140         
00800.M2TS      4610 (0x1202)   0x90            PGS             cat (Catalan)           4659.196                36                      21,244,801      123,179         
00800.M2TS      4611 (0x1203)   0x90            PGS             dan (Danish)            4659.196                38                      22,302,799      129,083         
00800.M2TS      4612 (0x1204)   0x90            PGS             deu (German)            4659.196                45                      26,363,353      151,017         
00800.M2TS      4613 (0x1205)   0x90            PGS             spa (Spanish)           4659.196                41                      24,055,860      138,599         
00800.M2TS      4614 (0x1206)   0x90            PGS             ita (Italian)           4659.196                40                      23,218,549      133,928         
00800.M2TS      4615 (0x1207)   0x90            PGS             kor (Korean)            4659.196                27                      15,599,004      92,474          
00800.M2TS      4616 (0x1208)   0x90            PGS             nor (Norwegian)         4659.196                38                      22,410,608      129,589         
00800.M2TS      4617 (0x1209)   0x90            PGS             fin (Finnish)           4659.196                36                      20,887,718      121,297         
00800.M2TS      4618 (0x120A)   0x90            PGS             swe (Swedish)           4659.196                36                      21,040,111      121,221         
01091.M2TS      4113 (0x1011)   0x1B            AVC                                     111.737                 27,232                  380,346,186     2,068,659       
01091.M2TS      4352 (0x1100)   0x83            TrueHD          eng (English)           111.737                 5,382                   75,171,578      469,418         
01091.M2TS      4353 (0x1101)   0x81            AC3             eng (English)           111.737                 641                     8,952,320       52,455          
01091.M2TS      4354 (0x1102)   0x81            AC3             eng (English)           111.737                 641                     8,952,320       52,455          
01091.M2TS      4355 (0x1103)   0x81            AC3             cat (Catalan)           111.737                 641                     8,952,320       52,455          
01091.M2TS      4356 (0x1104)   0x81            AC3             dan (Danish)            111.737                 641                     8,952,320       52,455          
01091.M2TS      4357 (0x1105)   0x81            AC3             deu (German)            111.737                 641                     8,952,320       52,455          
01091.M2TS      4358 (0x1106)   0x81            AC3             spa (Spanish)           111.737                 641                     8,952,320       52,455          
01091.M2TS      4359 (0x1107)   0x81            AC3             ita (Italian)           111.737                 641                     8,952,320       52,455          
01091.M2TS      4360 (0x1108)   0x81            AC3             nor (Norwegian)         111.737                 641                     8,952,320       52,455          
01091.M2TS      4361 (0x1109)   0x81            AC3             fin (Finnish)           111.737                 641                     8,952,320       52,455          
01091.M2TS      4362 (0x110A)   0x81            AC3             swe (Swedish)           111.737                 641                     8,952,320       52,455          
01091.M2TS      4608 (0x1200)   0x90            PGS             eng (English)           111.737                 2                       34,574          202             
01091.M2TS      4609 (0x1201)   0x90            PGS             eng (English)           111.737                 4                       54,120          315             
01091.M2TS      4610 (0x1202)   0x90            PGS             cat (Catalan)           111.737                 3                       36,724          220             
01091.M2TS      4611 (0x1203)   0x90            PGS             dan (Danish)            111.737                 3                       45,363          269             
01091.M2TS      4612 (0x1204)   0x90            PGS             deu (German)            111.737                 5                       65,503          377             
01091.M2TS      4613 (0x1205)   0x90            PGS             spa (Spanish)           111.737                 4                       55,511          323             
01091.M2TS      4614 (0x1206)   0x90            PGS             ita (Italian)           111.737                 2                       30,009          177             
01091.M2TS      4615 (0x1207)   0x90            PGS             kor (Korean)            111.737                 2                       25,031          157             
01091.M2TS      4616 (0x1208)   0x90            PGS             nor (Norwegian)         111.737                 3                       38,353          230             
01091.M2TS      4617 (0x1209)   0x90            PGS             fin (Finnish)           111.737                 3                       41,397          246             
01091.M2TS      4618 (0x120A)   0x90            PGS             swe (Swedish)           111.737                 3                       36,106          217             
01092.M2TS      4113 (0x1011)   0x1B            AVC                                     345.720                 27,133                  1,172,542,156   6,377,474       
01092.M2TS      4352 (0x1100)   0x83            TrueHD          eng (English)           345.720                 4,785                   206,792,644     1,388,699       
01092.M2TS      4353 (0x1101)   0x81            AC3             eng (English)           345.720                 640                     27,665,920      162,105         
01092.M2TS      4354 (0x1102)   0x81            AC3             eng (English)           345.720                 640                     27,665,920      162,105         
01092.M2TS      4355 (0x1103)   0x81            AC3             cat (Catalan)           345.720                 640                     27,665,920      162,105         
01092.M2TS      4356 (0x1104)   0x81            AC3             dan (Danish)            345.720                 640                     27,665,920      162,105         
01092.M2TS      4357 (0x1105)   0x81            AC3             deu (German)            345.720                 640                     27,665,920      162,105         
01092.M2TS      4358 (0x1106)   0x81            AC3             spa (Spanish)           345.720                 640                     27,665,920      162,105         
01092.M2TS      4359 (0x1107)   0x81            AC3             ita (Italian)           345.720                 640                     27,665,920      162,105         
01092.M2TS      4360 (0x1108)   0x81            AC3             nor (Norwegian)         345.720                 640                     27,665,920      162,105         
01092.M2TS      4361 (0x1109)   0x81            AC3             fin (Finnish)           345.720                 640                     27,665,920      162,105         
01092.M2TS      4362 (0x110A)   0x81            AC3             swe (Swedish)           345.720                 640                     27,665,920      162,105         
01092.M2TS      4608 (0x1200)   0x90            PGS             eng (English)           345.720                 0                       70              7               
01092.M2TS      4609 (0x1201)   0x90            PGS             eng (English)           345.720                 0                       15,146          89              
01092.M2TS      4610 (0x1202)   0x90            PGS             cat (Catalan)           345.720                 0                       6,068           40              
01092.M2TS      4611 (0x1203)   0x90            PGS             dan (Danish)            345.720                 0                       5,452           37              
01092.M2TS      4612 (0x1204)   0x90            PGS             deu (German)            345.720                 0                       5,931           39              
01092.M2TS      4613 (0x1205)   0x90            PGS             spa (Spanish)           345.720                 0                       6,992           45              
01092.M2TS      4614 (0x1206)   0x90            PGS             ita (Italian)           345.720                 0                       5,022           34              
01092.M2TS      4615 (0x1207)   0x90            PGS             kor (Korean)            345.720                 0                       5,108           34              
01092.M2TS      4616 (0x1208)   0x90            PGS             nor (Norwegian)         345.720                 0                       8,243           52              
01092.M2TS      4617 (0x1209)   0x90            PGS             fin (Finnish)           345.720                 0                       5,413           36              
01092.M2TS      4618 (0x120A)   0x90            PGS             swe (Swedish)           345.720                 0                       6,807           44              

[/code]
<---- END FORUMS PASTE ---->

QUICK SUMMARY:

Disc Title: Wonder Park
Disc Label: Wonder.Park.2019.MULTI.COMPLETE.BLURAY-BD4U
Disc Size: 37,080,002,088 bytes
Protection: AACS
Playlist: 00801.MPLS
Size: 27,196,096,512 bytes
Length: 1:25:16.986
Total Bitrate: 42.52 Mbps
Video: MPEG-4 AVC Video / 27216 kbps / 1080p / 23.976 fps / 16:9 / High Profile 4.1
Audio: English / Dolby TrueHD Audio / 7.1 / 48 kHz /  4327 kbps / 24-bit (AC3 Embedded: 5.1-EX / 48 kHz /   640 kbps / DN -27dB)
Audio: English / Dolby Digital Audio / 5.1 / 48 kHz /   640 kbps / DN -27dB
Audio: English / Dolby Digital Audio / 5.1 / 48 kHz /   640 kbps / DN -27dB
Audio: Catalan / Dolby Digital Audio / 5.1 / 48 kHz /   640 kbps / DN -27dB
Audio: Danish / Dolby Digital Audio / 5.1 / 48 kHz /   640 kbps / DN -27dB
Audio: German / Dolby Digital Audio / 5.1 / 48 kHz /   640 kbps / DN -27dB
Audio: Spanish / Dolby Digital Audio / 5.1 / 48 kHz /   640 kbps / DN -27dB
Audio: Italian / Dolby Digital Audio / 5.1 / 48 kHz /   640 kbps / DN -27dB
Audio: Norwegian / Dolby Digital Audio / 5.1 / 48 kHz /   640 kbps / DN -27dB
Audio: Finnish / Dolby Digital Audio / 5.1 / 48 kHz /   640 kbps / DN -27dB
Audio: Swedish / Dolby Digital Audio / 5.1 / 48 kHz /   640 kbps / DN -27dB
Subtitle: English / 37.228 kbps
Subtitle: English / 48.063 kbps
Subtitle: Catalan / 33.281 kbps
Subtitle: Danish / 34.948 kbps
Subtitle: German / 41.329 kbps
Subtitle: Spanish / 37.707 kbps
Subtitle: Italian / 36.355 kbps
Subtitle: Korean / 24.435 kbps
Subtitle: Norwegian / 35.110 kbps
Subtitle: Finnish / 32.729 kbps
Subtitle: Swedish / 32.962 kbps


********************
PLAYLIST: 01800.MPLS
********************

<--- BEGIN FORUMS PASTE --->
[code]
                                                                                                                Total   Video                                             
Title                                                           Codec   Length  Movie Size      Disc Size       Bitrate Bitrate Main Audio Track                          Secondary Audio Track
-----                                                           ------  ------- --------------  --------------  ------- ------- ------------------                        ---------------------
01800.MPLS                                                      AVC     1:17:39 24,801,226,752  37,080,002,088  42.58   27.22   Dolby TrueHD 7.1 4970Kbps (48kHz/24-bit)  DD AC3 5.1 640Kbps
[/code]

[code]

DISC INFO:

Disc Title:     Wonder Park
Disc Label:     Wonder.Park.2019.MULTI.COMPLETE.BLURAY-BD4U
Disc Size:      37,080,002,088 bytes
Protection:     AACS
Extras:         BD-Java
BDInfo:         0.7.5.5

PLAYLIST REPORT:

Name:                   01800.MPLS
Length:                 1:17:39.279 (h:m:s.ms)
Size:                   24,801,226,752 bytes
Total Bitrate:          42.58 Mbps

VIDEO:

Codec                   Bitrate             Description     
-----                   -------             -----------     
MPEG-4 AVC Video        27224 kbps          1080p / 23.976 fps / 16:9 / High Profile 4.1

AUDIO:

Codec                           Language        Bitrate         Description     
-----                           --------        -------         -----------     
Dolby TrueHD Audio              English         4970 kbps       7.1 / 48 kHz /  4330 kbps / 24-bit (AC3 Embedded: 5.1-EX / 48 kHz /   640 kbps / DN -27dB)
Dolby Digital Audio             English         640 kbps        5.1 / 48 kHz /   640 kbps / DN -27dB
Dolby Digital Audio             English         640 kbps        5.1 / 48 kHz /   640 kbps / DN -27dB
Dolby Digital Audio             Catalan         640 kbps        5.1 / 48 kHz /   640 kbps / DN -27dB
Dolby Digital Audio             Danish          640 kbps        5.1 / 48 kHz /   640 kbps / DN -27dB
Dolby Digital Audio             German          640 kbps        5.1 / 48 kHz /   640 kbps / DN -27dB
Dolby Digital Audio             Spanish         640 kbps        5.1 / 48 kHz /   640 kbps / DN -27dB
Dolby Digital Audio             Italian         640 kbps        5.1 / 48 kHz /   640 kbps / DN -27dB
Dolby Digital Audio             Norwegian       640 kbps        5.1 / 48 kHz /   640 kbps / DN -27dB
Dolby Digital Audio             Finnish         640 kbps        5.1 / 48 kHz /   640 kbps / DN -27dB
Dolby Digital Audio             Swedish         640 kbps        5.1 / 48 kHz /   640 kbps / DN -27dB

SUBTITLES:

Codec                           Language        Bitrate         Description     
-----                           --------        -------         -----------     
Presentation Graphics           English         40.826 kbps                     
Presentation Graphics           English         52.666 kbps                     
Presentation Graphics           Catalan         36.477 kbps                     
Presentation Graphics           Danish          38.294 kbps                     
Presentation Graphics           German          45.266 kbps                     
Presentation Graphics           Spanish         41.304 kbps                     
Presentation Graphics           Italian         39.866 kbps                     
Presentation Graphics           Korean          26.784 kbps                     
Presentation Graphics           Norwegian       38.479 kbps                     
Presentation Graphics           Finnish         35.864 kbps                     
Presentation Graphics           Swedish         36.126 kbps                     

FILES:

Name            Time In         Length          Size            Total Bitrate   
----            -------         ------          ----            -------------   
00800.M2TS      0:00:00.000     1:17:39.279     24,801,226,752  42,584          

CHAPTERS:

Number          Time In         Length          Avg Video Rate  Max 1-Sec Rate  Max 1-Sec Time  Max 5-Sec Rate  Max 5-Sec Time  Max 10Sec Rate  Max 10Sec Time  Avg Frame Size  Max Frame Size  Max Frame Time  
------          -------         ------          --------------  --------------  --------------  --------------  --------------  --------------  --------------  --------------  --------------  --------------  
1               0:00:00.000     1:17:39.279     27,224 kbps     36,080 kbps     01:02:14.981    30,183 kbps     01:02:10.977    29,331 kbps     01:02:05.972    141,932 bytes   636,875 bytes   00:43:03.122    

STREAM DIAGNOSTICS:

File            PID             Type            Codec           Language                Seconds                 Bitrate                 Bytes           Packets         
----            ---             ----            -----           --------                --------------          --------------          -------------   -----           
00800.M2TS      4113 (0x1011)   0x1B            AVC                                     4659.196                27,224                  15,855,373,954  86,236,579      
00800.M2TS      4352 (0x1100)   0x83            TrueHD          eng (English)           4659.196                4,970                   2,894,740,328   19,435,889      
00800.M2TS      4353 (0x1101)   0x81            AC3             eng (English)           4659.196                640                     372,743,680     2,184,045       
00800.M2TS      4354 (0x1102)   0x81            AC3             eng (English)           4659.196                640                     372,743,680     2,184,045       
00800.M2TS      4355 (0x1103)   0x81            AC3             cat (Catalan)           4659.196                640                     372,743,680     2,184,045       
00800.M2TS      4356 (0x1104)   0x81            AC3             dan (Danish)            4659.196                640                     372,743,680     2,184,045       
00800.M2TS      4357 (0x1105)   0x81            AC3             deu (German)            4659.196                640                     372,743,680     2,184,045       
00800.M2TS      4358 (0x1106)   0x81            AC3             spa (Spanish)           4659.196                640                     372,743,680     2,184,045       
00800.M2TS      4359 (0x1107)   0x81            AC3             ita (Italian)           4659.196                640                     372,743,680     2,184,045       
00800.M2TS      4360 (0x1108)   0x81            AC3             nor (Norwegian)         4659.196                640                     372,743,680     2,184,045       
00800.M2TS      4361 (0x1109)   0x81            AC3             fin (Finnish)           4659.196                640                     372,743,680     2,184,045       
00800.M2TS      4362 (0x110A)   0x81            AC3             swe (Swedish)           4659.196                640                     372,743,680     2,184,045       
00800.M2TS      4608 (0x1200)   0x90            PGS             eng (English)           4659.196                41                      23,777,241      136,919         
00800.M2TS      4609 (0x1201)   0x90            PGS             eng (English)           4659.196                53                      30,673,257      177,140         
00800.M2TS      4610 (0x1202)   0x90            PGS             cat (Catalan)           4659.196                36                      21,244,801      123,179         
00800.M2TS      4611 (0x1203)   0x90            PGS             dan (Danish)            4659.196                38                      22,302,799      129,083         
00800.M2TS      4612 (0x1204)   0x90            PGS             deu (German)            4659.196                45                      26,363,353      151,017         
00800.M2TS      4613 (0x1205)   0x90            PGS             spa (Spanish)           4659.196                41                      24,055,860      138,599         
00800.M2TS      4614 (0x1206)   0x90            PGS             ita (Italian)           4659.196                40                      23,218,549      133,928         
00800.M2TS      4615 (0x1207)   0x90            PGS             kor (Korean)            4659.196                27                      15,599,004      92,474          
00800.M2TS      4616 (0x1208)   0x90            PGS             nor (Norwegian)         4659.196                38                      22,410,608      129,589         
00800.M2TS      4617 (0x1209)   0x90            PGS             fin (Finnish)           4659.196                36                      20,887,718      121,297         
00800.M2TS      4618 (0x120A)   0x90            PGS             swe (Swedish)           4659.196                36                      21,040,111      121,221         

[/code]
<---- END FORUMS PASTE ---->

QUICK SUMMARY:

Disc Title: Wonder Park
Disc Label: Wonder.Park.2019.MULTI.COMPLETE.BLURAY-BD4U
Disc Size: 37,080,002,088 bytes
Protection: AACS
Playlist: 01800.MPLS
Size: 24,801,226,752 bytes
Length: 1:17:39.279
Total Bitrate: 42.58 Mbps
Video: MPEG-4 AVC Video / 27224 kbps / 1080p / 23.976 fps / 16:9 / High Profile 4.1
Audio: English / Dolby TrueHD Audio / 7.1 / 48 kHz /  4330 kbps / 24-bit (AC3 Embedded: 5.1-EX / 48 kHz /   640 kbps / DN -27dB)
Audio: English / Dolby Digital Audio / 5.1 / 48 kHz /   640 kbps / DN -27dB
Audio: English / Dolby Digital Audio / 5.1 / 48 kHz /   640 kbps / DN -27dB
Audio: Catalan / Dolby Digital Audio / 5.1 / 48 kHz /   640 kbps / DN -27dB
Audio: Danish / Dolby Digital Audio / 5.1 / 48 kHz /   640 kbps / DN -27dB
Audio: German / Dolby Digital Audio / 5.1 / 48 kHz /   640 kbps / DN -27dB
Audio: Spanish / Dolby Digital Audio / 5.1 / 48 kHz /   640 kbps / DN -27dB
Audio: Italian / Dolby Digital Audio / 5.1 / 48 kHz /   640 kbps / DN -27dB
Audio: Norwegian / Dolby Digital Audio / 5.1 / 48 kHz /   640 kbps / DN -27dB
Audio: Finnish / Dolby Digital Audio / 5.1 / 48 kHz /   640 kbps / DN -27dB
Audio: Swedish / Dolby Digital Audio / 5.1 / 48 kHz /   640 kbps / DN -27dB
Subtitle: English / 40.826 kbps
Subtitle: English / 52.666 kbps
Subtitle: Catalan / 36.477 kbps
Subtitle: Danish / 38.294 kbps
Subtitle: German / 45.266 kbps
Subtitle: Spanish / 41.304 kbps
Subtitle: Italian / 39.866 kbps
Subtitle: Korean / 26.784 kbps
Subtitle: Norwegian / 38.479 kbps
Subtitle: Finnish / 35.864 kbps
Subtitle: Swedish / 36.126 kbps

